<svg width="0" height="0" class="hidden">
  <!-- Чекбокс -->
  <symbol xmlns="http://www.w3.org/2000/svg" viewBox="0 0 24 24" id="check">
    <path d="M11 17l-5-5.299 1.399-1.43 3.574 3.736 6.572-7.007 1.455 1.403-8 8.597zm11-15v20h-20v-20h20zm2-2h-24v24h24v-24z"></path>
  </symbol>

  <!-- Конверт -->
  <symbol version="1.1" id="envelope" xmlns="http://www.w3.org/2000/svg" xmlns:xlink="http://www.w3.org/1999/xlink" x="0px" y="0px" xml:space="preserve" viewBox="0 0 512 512">
    <g>
      <g>
        <path d="M0,73.143v365.714h512V73.143H0z M454.416,104.49L256,277.025L57.584,104.49H454.416z M31.347,123.217L184.048,256
			L31.347,388.784V123.217z M57.584,407.51l150.35-130.74L256,318.566l48.065-41.796l150.35,130.74H57.584z M480.653,388.785
			L327.952,256l152.701-132.783V388.785z"></path>
      </g>
    </g>
  </symbol>
</svg>